<?xml version="1.0" standalone="no"?>
<!DOCTYPE svg PUBLIC "-//W3C//DTD SVG 20010904//EN"
 "http://www.w3.org/TR/2001/REC-SVG-20010904/DTD/svg10.dtd">
<svg version="1.0" xmlns="http://www.w3.org/2000/svg"
 width="396.000000pt" height="412.000000pt" viewBox="0 0 396.000000 412.000000"
 preserveAspectRatio="xMidYMid meet">

<g transform="translate(0.000000,412.000000) scale(0.100000,-0.100000)"
fill="white" stroke="none">
<path d="M1397 4109 c-162 -25 -330 -258 -451 -625 l-27 -81 -87 -18 c-112
-23 -293 -80 -357 -112 -124 -63 -175 -117 -175 -186 0 -95 194 -209 453 -267
l57 -13 0 -92 c0 -102 19 -228 49 -323 l19 -62 -227 0 c-124 0 -244 -5 -266
-10 -51 -11 -85 -50 -85 -96 0 -21 60 -184 155 -421 85 -213 155 -393 155
-400 0 -7 -4 -13 -10 -13 -5 0 -53 -42 -106 -93 -280 -266 -443 -624 -447
-982 -2 -106 1 -125 20 -161 29 -55 93 -111 141 -124 28 -7 532 -9 1644 -8
1784 3 1625 -3 1698 70 69 68 83 149 60 338 -45 358 -222 685 -503 926 l-57
49 140 350 c185 463 184 457 166 498 -7 17 -23 41 -36 52 -21 19 -39 20 -279
23 l-257 3 19 57 c31 94 47 197 47 313 0 94 2 109 16 109 9 0 64 14 123 31
250 72 392 176 374 274 -9 42 -87 115 -163 151 -84 41 -262 98 -372 119 l-86
17 -41 120 c-80 233 -172 399 -275 497 -78 73 -129 93 -230 92 -101 0 -153
-16 -236 -70 -35 -23 -75 -44 -88 -48 -45 -11 -101 5 -174 50 -40 25 -89 49
-108 55 -51 15 -138 20 -193 11z m-182 -1368 c394 -43 1084 -35 1351 15 l37 7
-5 -101 c-6 -118 -33 -187 -98 -246 -81 -73 -108 -81 -270 -81 -130 0 -149 2
-185 22 -55 29 -118 97 -149 161 -24 47 -29 52 -60 52 -36 0 -53 -15 -79 -72
-24 -54 -78 -110 -134 -138 -44 -23 -59 -25 -193 -25 -142 0 -146 1 -198 29
-109 61 -157 147 -168 300 l-7 99 34 -6 c19 -4 75 -11 124 -16z m425 -1313
l65 -128 -124 -497 c-68 -274 -126 -502 -129 -508 -5 -8 -381 1472 -382 1503
0 7 112 -44 253 -115 l252 -128 65 -127z m909 190 c-26 -106 -112 -452 -190
-768 l-142 -575 -129 513 -128 512 63 126 63 125 249 129 c138 71 253 129 256
129 4 1 -15 -86 -42 -191z"/>
<path d="M3598 4039 c-16 -9 -18 -26 -18 -124 l0 -115 -108 0 c-114 0 -152
-12 -152 -49 0 -41 30 -51 148 -51 l112 0 0 -113 c0 -120 6 -137 47 -137 34 0
43 29 43 144 l0 106 114 0 c106 0 116 2 130 21 8 12 12 29 9 38 -12 34 -35 41
-145 41 l-108 0 0 109 c0 86 -3 113 -16 125 -18 18 -32 20 -56 5z"/>
</g>
</svg>
