<?xml version="1.0" encoding="UTF-8" ?>
<!DOCTYPE svg PUBLIC "-//W3C//DTD SVG 1.1//EN" "http://www.w3.org/Graphics/SVG/1.1/DTD/svg11.dtd">
<svg width="889pt" height="370pt" viewBox="0 0 889 370" version="1.1" xmlns="http://www.w3.org/2000/svg">
<g id="#ffffffff">
</g>
<g id="#015197ff">
<path fill="#015197" opacity="1.00" d=" M 169.25 21.25 C 194.50 21.25 219.74 21.25 244.99 21.24 C 245.00 22.99 245.00 24.74 245.00 26.49 C 243.92 26.50 242.83 26.51 241.76 26.52 C 241.75 30.74 241.75 34.96 241.75 39.18 C 242.26 39.22 243.27 39.30 243.78 39.34 C 243.75 42.64 243.75 45.95 243.75 49.25 C 241.04 49.25 238.33 49.25 235.62 49.24 C 238.32 57.35 238.45 66.66 234.23 74.28 C 228.24 86.08 213.79 92.88 200.90 89.63 C 188.93 87.03 179.44 76.21 177.99 64.11 C 177.14 58.25 178.68 52.36 180.98 46.99 C 182.22 44.85 181.42 42.42 181.27 40.12 C 180.78 35.67 181.06 31.19 181.00 26.72 C 177.08 26.74 173.16 27.00 169.24 27.03 C 169.24 25.10 169.24 23.18 169.25 21.25 M 232.02 26.75 C 232.21 34.01 230.35 42.20 235.10 48.46 C 235.27 45.43 235.27 42.39 235.23 39.35 C 235.92 39.25 237.31 39.04 238.00 38.93 C 238.00 34.87 238.00 30.82 238.00 26.76 C 236.00 26.76 234.01 26.76 232.02 26.75 M 184.35 44.92 C 181.95 49.46 180.39 54.40 179.65 59.48 C 182.77 59.50 185.89 59.50 189.01 59.53 C 189.52 55.21 190.20 50.91 190.95 46.63 C 188.74 46.08 186.55 45.51 184.35 44.92 M 223.54 46.93 C 224.37 51.09 224.98 55.29 225.37 59.52 C 228.80 59.50 232.24 59.51 235.67 59.46 C 234.93 54.32 233.32 49.35 230.92 44.75 C 228.46 45.47 226.00 46.21 223.54 46.93 M 193.03 47.37 C 192.23 51.38 191.64 55.42 191.16 59.47 C 196.35 59.52 201.55 59.49 206.75 59.50 C 206.75 56.81 206.75 54.12 206.74 51.43 C 202.17 50.08 197.60 48.72 193.03 47.37 M 209.00 51.14 C 209.00 53.92 209.00 56.71 209.00 59.50 C 213.78 59.50 218.55 59.51 223.33 59.49 C 222.84 55.49 222.29 51.50 221.49 47.55 C 217.32 48.71 213.17 49.97 209.00 51.14 M 179.66 61.52 C 180.37 66.51 181.93 71.33 184.11 75.87 C 186.49 74.84 188.87 73.82 191.25 72.80 C 190.35 69.08 189.76 65.30 189.21 61.51 C 186.02 61.50 182.84 61.50 179.66 61.52 M 191.31 61.47 C 191.84 65.02 192.47 68.55 193.10 72.08 C 197.62 71.18 202.18 70.52 206.76 70.01 C 206.75 67.17 206.74 64.34 206.74 61.50 C 201.60 61.50 196.45 61.53 191.31 61.47 M 209.04 61.48 C 209.00 64.34 208.99 67.21 209.00 70.08 C 213.16 70.57 217.29 71.32 221.40 72.09 C 222.01 68.56 222.62 65.03 223.21 61.50 C 218.48 61.50 213.76 61.52 209.04 61.48 M 225.13 61.81 C 224.71 65.56 224.05 69.28 223.22 72.96 C 225.66 74.21 228.12 75.43 230.59 76.64 C 233.23 71.97 234.90 66.84 235.68 61.54 C 232.16 61.44 228.63 61.49 225.13 61.81 M 193.67 74.18 C 196.33 79.76 200.49 85.04 206.73 86.71 C 206.76 81.85 206.77 77.00 206.71 72.14 C 202.34 72.67 197.97 73.23 193.67 74.18 M 209.00 72.18 C 209.01 76.94 208.96 81.70 209.04 86.46 C 214.54 84.24 218.29 79.42 220.81 74.24 C 216.90 73.40 212.96 72.74 209.00 72.18 M 185.67 77.55 C 190.16 83.00 196.62 86.37 203.34 88.24 C 198.32 84.98 194.30 80.35 191.87 74.88 C 189.80 75.75 187.73 76.64 185.67 77.55 M 222.66 75.09 C 219.96 80.81 215.61 85.71 210.00 88.72 C 217.14 86.98 224.09 83.84 229.13 78.35 C 226.98 77.24 224.82 76.16 222.66 75.09 Z" />
<path fill="#015197" opacity="1.00" d=" M 598.99 40.88 C 611.02 29.18 627.54 23.51 643.88 21.22 C 668.73 18.45 694.13 22.23 717.42 31.24 C 717.41 40.41 717.38 49.57 717.40 58.74 C 695.47 50.07 671.46 45.49 647.90 48.51 C 637.81 50.00 626.86 52.82 620.12 61.08 C 612.64 70.90 615.56 86.40 625.48 93.52 C 631.57 97.78 638.76 100.41 646.00 101.94 C 659.21 104.82 672.68 106.31 685.89 109.21 C 697.61 111.34 708.87 117.15 716.44 126.48 C 724.08 136.28 727.10 148.82 727.70 161.03 C 728.60 169.83 727.20 178.96 722.63 186.62 C 715.13 199.88 701.03 207.56 687.12 212.47 C 676.70 215.75 665.84 217.58 654.95 218.23 C 641.34 218.27 627.66 218.01 614.21 215.71 C 604.30 213.88 594.39 211.96 584.68 209.25 C 584.67 199.92 584.69 190.60 584.66 181.27 C 595.25 185.74 606.56 188.21 617.95 189.56 C 629.26 190.52 640.59 192.47 651.97 191.37 C 664.51 190.36 677.63 187.67 687.71 179.69 C 699.55 170.04 697.92 149.03 684.88 141.17 C 672.22 133.49 657.09 132.98 642.87 130.70 C 627.02 128.35 610.80 123.27 598.92 112.03 C 580.42 93.35 579.92 59.36 598.99 40.88 Z" />
<path fill="#015197" opacity="1.00" d=" M 413.86 24.00 C 467.29 24.00 520.72 24.00 574.14 24.00 C 574.14 32.67 574.14 41.33 574.14 50.00 C 551.49 50.01 528.84 49.99 506.18 50.00 C 506.19 105.67 506.18 161.33 506.18 217.00 C 497.46 217.00 488.74 217.00 480.02 217.00 C 480.02 161.33 480.02 105.67 480.01 50.00 C 457.96 50.00 435.91 50.00 413.86 50.00 C 413.86 41.33 413.86 32.67 413.86 24.00 Z" />
<path fill="#015197" opacity="1.00" d=" M 265.10 217.51 C 289.22 153.90 313.42 90.31 337.66 26.74 C 347.15 26.75 356.64 26.74 366.13 26.75 C 390.50 90.65 414.87 154.55 439.11 218.50 C 429.95 218.50 420.78 218.51 411.62 218.50 C 405.62 201.51 399.61 184.53 393.68 167.52 C 366.46 167.47 339.24 167.53 312.01 167.49 C 310.59 167.57 308.50 167.15 308.22 169.11 C 302.77 185.04 297.55 201.04 292.19 217.00 C 283.16 217.17 274.13 217.33 265.10 217.51 M 351.85 56.01 C 341.24 84.91 330.62 113.81 320.09 142.75 C 341.12 142.75 362.16 142.75 383.19 142.75 C 372.81 113.81 362.38 84.89 351.85 56.01 Z" />
<path fill="#015197" opacity="1.00" d=" M 359.25 249.11 C 361.21 249.04 363.17 248.99 365.14 248.96 C 367.83 254.96 370.48 260.99 373.13 267.01 C 371.23 266.99 369.34 266.97 367.44 266.93 C 367.06 265.80 366.68 264.67 366.30 263.55 C 363.65 263.49 361.01 263.36 358.38 263.23 C 357.89 264.49 357.40 265.74 356.92 267.00 C 355.06 267.00 353.20 266.99 351.34 267.00 C 353.96 261.03 356.56 255.05 359.25 249.11 M 362.29 253.76 C 361.39 255.91 360.53 258.07 359.67 260.23 C 361.39 260.24 363.11 260.24 364.84 260.25 C 363.98 258.09 363.13 255.92 362.29 253.76 Z" />
<path fill="#015197" opacity="1.00" d=" M 409.24 249.00 C 411.08 249.00 412.91 249.00 414.76 249.00 C 414.75 255.25 414.76 261.50 414.75 267.76 C 412.91 267.75 411.08 267.75 409.25 267.75 C 409.24 261.50 409.25 255.25 409.24 249.00 Z" />
<path fill="#015197" opacity="1.00" d=" M 418.21 249.32 C 419.58 247.44 422.81 250.48 421.11 251.95 C 419.74 254.65 415.58 250.88 418.21 249.32 Z" />
<path fill="#015197" opacity="1.00" d=" M 450.00 249.00 C 451.58 249.00 453.17 249.00 454.76 249.01 C 454.75 255.00 454.75 260.99 454.76 266.99 C 451.24 266.93 447.71 267.22 444.21 266.84 C 439.09 265.08 438.87 257.03 443.36 254.43 C 445.37 253.26 447.80 253.92 450.00 253.92 C 450.00 252.28 449.99 250.64 450.00 249.00 M 445.05 260.81 C 444.94 263.54 448.02 263.51 449.98 263.66 C 449.99 261.36 450.00 259.06 449.98 256.77 C 447.73 257.02 444.30 257.71 445.05 260.81 Z" />
<path fill="#015197" opacity="1.00" d=" M 464.76 249.00 C 471.01 249.00 477.25 249.00 483.50 249.00 C 483.50 250.50 483.50 252.00 483.50 253.50 C 481.25 253.50 479.00 253.51 476.76 253.51 C 476.75 258.01 476.75 262.50 476.76 267.00 C 475.00 266.99 473.24 266.99 471.49 266.99 C 471.50 262.49 471.49 258.00 471.49 253.50 C 469.35 253.50 467.22 253.51 465.09 253.52 C 464.98 252.01 464.87 250.50 464.76 249.00 Z" />
<path fill="#015197" opacity="1.00" d=" M 512.00 248.96 C 513.58 249.00 515.18 249.05 516.77 249.12 C 516.68 251.06 516.55 252.99 516.42 254.93 C 519.08 254.33 522.86 252.36 524.93 255.18 C 526.99 258.76 525.90 263.09 525.95 267.01 C 524.47 266.99 523.00 266.99 521.53 266.99 C 521.57 263.65 521.33 260.32 520.78 257.03 C 519.42 257.51 518.07 258.01 516.73 258.53 C 516.75 261.35 516.75 264.17 516.76 266.99 C 515.17 266.99 513.58 266.99 512.00 267.00 C 512.00 260.99 512.00 254.97 512.00 248.96 Z" />
<path fill="#015197" opacity="1.00" d=" M 562.75 249.00 C 564.49 249.00 566.24 249.00 568.00 249.00 C 568.00 255.25 568.00 261.50 568.00 267.75 C 566.24 267.75 564.49 267.75 562.75 267.75 C 562.74 261.50 562.75 255.25 562.75 249.00 Z" />
<path fill="#015197" opacity="1.00" d=" M 626.52 256.49 C 624.57 253.71 626.75 249.74 629.89 249.16 C 632.66 248.58 635.47 249.34 638.19 249.91 C 638.30 251.28 638.43 252.66 638.56 254.04 C 635.78 253.11 632.79 252.22 630.04 253.77 C 632.53 255.34 635.29 256.55 637.58 258.47 C 639.89 260.45 639.45 264.43 636.86 265.97 C 633.58 268.02 629.58 266.93 626.06 266.24 C 626.02 264.77 625.98 263.31 625.96 261.85 C 628.72 262.77 631.94 264.18 634.39 261.81 C 631.71 260.16 628.46 259.09 626.52 256.49 Z" />
<path fill="#015197" opacity="1.00" d=" M 655.48 249.03 C 657.08 249.01 658.69 249.00 660.31 248.99 C 660.20 251.01 660.06 253.04 659.94 255.07 C 662.65 254.21 666.63 252.37 668.65 255.39 C 670.15 259.04 669.31 263.15 669.50 267.00 C 667.99 267.00 666.50 267.00 665.01 267.00 C 665.09 263.54 665.10 260.03 664.00 256.72 C 659.06 257.64 659.96 263.27 660.12 267.01 C 658.57 267.00 657.03 266.99 655.49 266.98 C 655.50 261.00 655.51 255.01 655.48 249.03 Z" />
<path fill="#015197" opacity="1.00" d=" M 706.75 249.00 C 708.49 249.00 710.24 249.00 712.00 249.00 C 712.00 255.25 712.00 261.50 712.00 267.75 C 710.24 267.75 708.49 267.75 706.75 267.75 C 706.74 261.50 706.74 255.25 706.75 249.00 Z" />
<path fill="#015197" opacity="1.00" d=" M 375.00 254.05 C 378.58 253.92 382.25 253.32 385.79 254.17 C 390.93 256.03 390.71 264.67 385.83 266.72 C 383.84 267.20 381.77 266.94 379.75 266.99 C 379.75 268.98 379.75 270.99 379.76 272.99 C 378.17 272.99 376.58 272.99 375.00 273.00 C 375.00 266.68 375.00 260.37 375.00 254.05 M 379.45 257.44 C 379.67 259.66 379.92 261.87 380.28 264.08 C 384.15 264.56 385.41 260.47 384.17 257.47 C 382.59 257.44 381.02 257.43 379.45 257.44 Z" />
<path fill="#015197" opacity="1.00" d=" M 392.00 254.05 C 395.61 253.88 399.30 253.33 402.87 254.20 C 407.71 256.47 407.49 264.46 402.75 266.73 C 400.70 267.23 398.57 266.93 396.50 266.97 C 396.50 268.97 396.50 270.97 396.52 272.98 C 395.01 272.99 393.50 272.99 392.00 273.01 C 392.00 266.69 392.00 260.37 392.00 254.05 M 396.52 257.10 C 396.50 259.29 396.49 261.47 396.50 263.66 C 398.50 263.89 401.70 263.60 401.56 260.87 C 402.19 257.82 398.86 256.97 396.52 257.10 Z" />
<path fill="#015197" opacity="1.00" d=" M 417.27 253.75 C 418.39 253.75 420.63 253.75 421.75 253.75 C 421.75 258.17 421.76 262.58 421.75 267.00 C 420.15 267.00 418.56 267.00 416.97 267.00 C 416.98 262.58 417.30 258.17 417.27 253.75 Z" />
<path fill="#015197" opacity="1.00" d=" M 424.47 261.01 C 423.55 255.58 430.25 251.95 434.80 254.17 C 437.78 255.30 438.19 258.82 438.95 261.50 C 435.45 261.45 431.94 261.51 428.47 261.93 C 431.37 264.80 435.48 263.96 439.10 263.53 C 436.04 269.65 424.81 268.12 424.47 261.01 M 428.26 259.26 C 430.46 259.22 432.65 259.06 434.86 258.91 C 433.86 257.97 432.86 257.03 431.87 256.09 C 430.61 257.09 429.41 258.15 428.26 259.26 Z" />
<path fill="#015197" opacity="1.00" d=" M 482.21 261.08 C 481.18 255.28 488.91 251.50 493.39 254.63 C 495.70 256.09 495.90 259.08 496.68 261.44 C 493.18 261.48 489.69 261.59 486.21 261.92 C 489.10 264.76 493.19 263.97 496.80 263.47 C 493.89 269.76 482.58 268.09 482.21 261.08 M 486.05 258.95 C 488.26 259.00 490.47 258.99 492.69 258.95 C 491.84 258.13 490.97 257.36 490.06 256.63 C 488.32 256.01 487.31 258.14 486.05 258.95 Z" />
<path fill="#015197" opacity="1.00" d=" M 497.96 259.91 C 498.05 254.49 504.70 252.47 509.12 253.98 C 509.32 254.85 509.72 256.58 509.92 257.45 C 508.18 257.52 506.42 257.36 504.71 257.71 C 502.42 258.40 502.09 261.84 504.18 262.98 C 506.23 263.47 508.37 263.24 510.47 263.33 C 508.95 270.73 496.44 266.80 497.96 259.91 Z" />
<path fill="#015197" opacity="1.00" d=" M 528.76 253.59 C 531.12 253.99 533.54 254.77 535.94 254.13 C 537.93 253.75 540.55 253.23 541.88 255.26 C 543.42 258.94 542.89 263.10 543.01 267.00 C 541.41 266.99 539.82 266.99 538.24 266.99 C 538.31 263.67 538.40 260.31 537.56 257.07 C 536.24 257.50 534.28 257.43 533.91 259.14 C 533.15 261.67 533.58 264.36 533.52 266.96 C 531.92 266.98 530.33 266.99 528.75 267.01 C 528.74 262.54 528.74 258.07 528.76 253.59 Z" />
<path fill="#015197" opacity="1.00" d=" M 548.43 254.53 C 552.86 252.04 560.09 254.29 560.25 259.98 C 560.87 265.66 553.70 268.91 549.08 266.58 C 544.21 264.76 543.77 256.85 548.43 254.53 M 552.85 263.78 C 556.72 263.13 555.66 256.86 551.98 256.59 C 549.57 258.38 548.95 263.70 552.85 263.78 Z" />
<path fill="#015197" opacity="1.00" d=" M 573.35 254.42 C 578.00 251.72 586.00 255.09 584.83 261.14 C 584.56 266.98 576.47 268.96 572.32 265.79 C 568.48 263.10 569.00 256.31 573.35 254.42 M 576.25 257.09 C 573.65 258.78 574.26 264.30 577.91 263.75 C 581.53 262.68 580.16 256.01 576.25 257.09 Z" />
<path fill="#015197" opacity="1.00" d=" M 587.45 256.33 C 590.71 252.60 596.25 253.98 600.59 254.01 C 599.88 256.25 599.58 258.60 598.83 260.83 C 597.41 263.25 594.32 263.71 591.90 264.58 C 594.68 265.21 598.58 265.05 599.96 268.08 C 600.78 271.45 596.81 273.39 593.99 273.26 C 591.50 273.01 588.35 273.24 586.67 271.03 C 586.10 268.29 589.05 266.43 589.15 263.76 C 588.28 261.42 585.47 258.83 587.45 256.33 M 592.03 261.07 C 593.93 261.20 594.97 259.46 596.23 258.35 C 595.06 257.70 593.90 257.05 592.75 256.41 C 591.03 257.31 590.02 259.91 592.03 261.07 M 589.93 270.74 C 592.45 270.88 595.01 270.69 597.31 269.52 C 595.09 267.95 590.57 267.16 589.93 270.74 Z" />
<path fill="#015197" opacity="1.00" d=" M 601.36 253.78 C 603.01 253.76 604.66 253.74 606.33 253.72 C 607.25 255.93 608.16 258.14 609.08 260.36 C 610.09 258.15 611.11 255.95 612.11 253.74 C 613.63 253.75 615.16 253.76 616.70 253.78 C 613.66 260.17 610.67 266.59 607.68 273.00 C 606.09 272.99 604.51 272.99 602.94 272.99 C 604.16 270.41 605.37 267.82 606.58 265.23 C 604.82 261.42 603.09 257.60 601.36 253.78 Z" />
<path fill="#015197" opacity="1.00" d=" M 643.95 255.03 C 646.48 252.99 649.95 253.93 652.92 253.98 C 653.00 254.85 653.15 256.59 653.22 257.46 C 651.20 257.62 648.99 257.15 647.14 258.17 C 645.76 259.37 646.09 261.55 647.27 262.78 C 649.48 263.67 651.93 263.15 654.26 263.26 C 653.29 268.34 646.72 268.17 643.50 265.39 C 640.67 262.67 640.74 257.44 643.95 255.03 Z" />
<path fill="#015197" opacity="1.00" d=" M 675.37 254.42 C 679.68 252.13 686.82 254.34 686.86 259.88 C 687.75 266.04 679.41 269.23 674.83 266.15 C 670.58 263.67 670.73 256.38 675.37 254.42 M 678.21 257.17 C 675.53 258.53 676.41 264.51 679.88 263.69 C 683.58 262.85 682.09 255.79 678.21 257.17 Z" />
<path fill="#015197" opacity="1.00" d=" M 692.28 254.34 C 696.99 251.77 704.78 255.11 703.78 261.14 C 703.46 266.71 696.22 268.75 691.92 266.25 C 687.44 263.90 687.68 256.41 692.28 254.34 M 695.13 257.07 C 692.75 258.66 692.96 263.58 696.22 263.72 C 700.49 263.59 699.26 255.71 695.13 257.07 Z" />
<path fill="#015197" opacity="1.00" d=" M 713.92 257.90 C 714.46 252.34 723.45 251.97 724.84 257.32 C 722.46 257.19 720.08 256.98 717.73 256.73 C 720.17 258.45 723.12 259.83 724.70 262.50 C 724.88 268.43 714.76 269.17 713.40 263.56 C 715.81 263.78 718.23 263.97 720.66 263.84 C 718.41 261.89 715.06 260.86 713.92 257.90 Z" />
<path fill="#015197" opacity="1.00" d=" M 159.50 315.31 C 161.66 314.70 163.83 314.08 165.99 313.47 C 166.00 320.88 166.01 328.28 165.99 335.69 C 170.86 331.64 176.27 326.76 183.07 327.22 C 186.10 327.16 188.79 329.28 190.08 331.92 C 191.73 335.20 191.98 338.93 192.40 342.52 C 196.51 342.49 200.63 342.50 204.74 342.50 C 204.75 337.57 204.76 332.64 204.74 327.71 C 206.90 327.03 209.07 326.36 211.24 325.70 C 211.26 331.30 211.25 336.90 211.26 342.50 C 215.75 342.50 220.25 342.50 224.74 342.50 C 224.75 333.44 224.75 324.38 224.75 315.32 C 226.91 314.71 229.08 314.08 231.25 313.47 C 231.25 325.06 231.25 336.66 231.25 348.25 C 170.49 348.26 109.73 348.24 48.97 348.26 C 46.92 348.50 45.23 347.28 43.65 346.17 C 40.02 348.51 35.16 349.00 31.40 346.68 C 26.90 343.36 26.89 335.70 31.36 332.31 C 36.61 328.10 43.55 327.28 50.00 326.44 C 50.00 331.79 50.00 337.14 50.00 342.50 C 55.16 342.50 60.33 342.50 65.49 342.50 C 65.50 337.52 65.50 332.55 65.49 327.58 C 67.66 326.96 69.83 326.35 72.00 325.74 C 72.01 331.33 71.99 336.92 72.01 342.51 C 76.43 342.51 80.84 342.39 85.25 342.68 C 83.28 339.71 81.31 336.07 82.69 332.44 C 85.00 324.31 96.90 322.95 102.42 328.45 C 106.26 332.44 105.41 338.78 102.22 342.90 C 107.70 342.17 113.24 342.60 118.74 342.50 C 118.75 337.51 118.75 332.53 118.74 327.54 C 120.91 326.94 123.08 326.33 125.25 325.73 C 125.26 331.32 125.23 336.92 125.27 342.51 C 130.68 342.49 136.09 342.50 141.49 342.50 C 141.50 337.53 141.50 332.56 141.49 327.59 C 143.66 326.97 145.83 326.35 148.00 325.74 C 148.00 331.32 148.00 336.91 148.00 342.50 C 151.83 342.50 155.66 342.50 159.49 342.50 C 159.51 333.44 159.48 324.38 159.50 315.31 M 91.43 330.57 C 85.27 332.08 88.55 342.03 94.13 341.57 C 97.90 340.90 99.85 336.60 99.20 333.09 C 97.77 330.32 94.17 329.78 91.43 330.57 M 36.24 335.20 C 33.95 336.62 33.22 340.74 35.86 342.19 C 38.43 342.87 41.14 342.45 43.77 342.53 C 43.74 339.08 43.75 335.64 43.74 332.21 C 41.21 333.10 38.52 333.71 36.24 335.20 M 165.67 342.50 C 172.33 342.49 179.00 342.52 185.67 342.48 C 185.34 339.17 185.13 334.25 180.98 333.57 C 174.35 332.49 169.82 338.36 165.67 342.50 Z" />
<path fill="#015197" opacity="1.00" d=" M 237.26 315.33 C 239.43 314.70 241.60 314.06 243.76 313.42 C 243.75 325.03 243.76 336.64 243.76 348.25 C 241.58 348.25 239.41 348.25 237.24 348.25 C 237.25 337.28 237.22 326.30 237.26 315.33 Z" />
<path fill="#015197" opacity="1.00" d=" M 264.47 315.13 C 266.64 314.59 268.82 314.04 271.00 313.50 C 270.85 323.17 270.60 332.84 271.04 342.51 C 275.60 342.49 280.17 342.50 284.74 342.50 C 284.75 337.53 284.75 332.56 284.74 327.59 C 286.90 326.96 289.07 326.33 291.25 325.72 C 291.27 331.32 291.22 336.92 291.28 342.52 C 301.23 342.48 311.18 342.50 321.13 342.51 C 318.88 338.72 317.40 333.80 313.21 331.69 C 311.03 331.96 309.35 333.50 307.59 334.65 C 306.33 333.49 305.08 332.33 303.81 331.19 C 307.28 328.17 311.83 323.96 316.77 326.14 C 323.57 329.93 324.34 339.16 330.94 343.25 C 331.08 344.91 331.21 346.58 331.33 348.25 C 308.96 348.24 286.60 348.28 264.23 348.23 C 264.10 337.19 264.45 326.16 264.47 315.13 Z" />
<path fill="#015197" opacity="1.00" d=" M 367.00 315.26 C 369.17 314.67 371.34 314.06 373.51 313.46 C 373.49 325.06 373.52 336.66 373.50 348.25 C 368.29 348.28 363.09 348.18 357.88 348.33 C 356.64 354.17 352.06 359.44 345.83 359.86 C 343.59 360.54 342.37 358.42 341.32 356.90 C 345.94 355.80 350.23 352.99 351.79 348.30 C 347.50 348.16 342.99 348.68 338.94 346.98 C 334.33 344.39 334.08 337.31 337.66 333.73 C 342.51 328.81 349.61 327.54 356.15 326.49 C 356.79 331.81 357.20 337.15 357.49 342.51 C 360.66 342.50 363.83 342.50 367.00 342.50 C 367.00 333.42 367.00 324.34 367.00 315.26 M 342.03 341.96 C 345.09 342.54 348.21 342.57 351.31 342.51 C 351.10 339.11 350.86 335.72 350.62 332.33 C 346.27 333.50 339.88 336.28 342.03 341.96 Z" />
<path fill="#015197" opacity="1.00" d=" M 432.80 319.94 C 439.45 317.77 446.03 315.41 452.67 313.24 C 452.12 315.49 451.57 317.76 451.05 320.03 C 446.81 321.39 442.55 322.68 438.26 323.86 C 443.99 328.63 449.28 334.76 450.06 342.49 C 455.37 342.51 460.69 342.50 466.00 342.50 C 466.00 337.50 465.99 332.50 466.01 327.50 C 468.17 326.92 470.34 326.33 472.50 325.73 C 472.50 331.32 472.50 336.91 472.51 342.50 C 477.00 342.50 481.50 342.50 486.00 342.50 C 486.00 333.42 486.00 324.35 486.00 315.28 C 488.17 314.67 490.33 314.04 492.50 313.42 C 492.51 323.11 492.50 332.80 492.51 342.50 C 496.50 342.50 500.50 342.50 504.49 342.50 C 504.50 333.42 504.49 324.35 504.50 315.28 C 506.66 314.66 508.82 314.05 510.99 313.47 C 511.01 325.06 511.00 336.66 511.00 348.25 C 474.16 348.25 437.32 348.26 400.49 348.24 C 399.23 352.00 397.73 356.27 393.87 358.08 C 390.71 359.70 385.53 361.35 383.85 356.94 C 388.41 355.73 392.92 353.06 394.37 348.29 C 389.76 348.12 384.71 348.81 380.55 346.41 C 376.94 343.17 376.89 336.87 380.45 333.55 C 385.26 328.70 392.35 327.49 398.83 326.59 C 399.37 331.88 399.87 337.18 400.06 342.51 C 404.21 342.49 408.35 342.50 412.49 342.50 C 412.49 337.53 412.50 332.57 412.49 327.61 C 414.66 326.96 416.83 326.32 419.00 325.67 C 419.00 331.28 418.99 336.89 419.01 342.51 C 427.37 342.49 435.72 342.49 444.08 342.51 C 443.19 335.99 437.92 331.47 432.47 328.50 C 432.51 325.64 432.66 322.79 432.80 319.94 M 384.29 341.65 C 387.39 342.69 390.67 342.52 393.88 342.66 C 393.73 339.21 393.50 335.76 393.16 332.33 C 388.82 333.47 383.01 336.12 384.29 341.65 Z" />
<path fill="#015197" opacity="1.00" d=" M 774.50 315.34 C 776.66 314.71 778.82 314.08 780.99 313.47 C 781.01 325.06 781.00 336.66 781.00 348.25 C 778.82 348.25 776.65 348.25 774.50 348.25 C 774.49 337.28 774.49 326.31 774.50 315.34 Z" />
<path fill="#015197" opacity="1.00" d=" M 849.24 315.28 C 851.41 314.66 853.58 314.04 855.76 313.42 C 855.77 325.02 855.71 336.62 855.79 348.21 C 849.65 348.31 843.52 348.19 837.38 348.30 C 836.49 349.39 835.60 350.47 834.74 351.58 C 830.41 350.06 826.26 348.09 822.20 345.96 C 821.51 346.62 820.82 347.29 820.14 347.96 C 809.17 348.44 798.16 348.43 787.20 347.75 C 787.34 345.90 787.47 344.05 787.58 342.20 C 793.04 342.60 798.52 342.54 804.00 342.44 C 803.03 336.87 799.37 332.25 794.52 329.50 C 794.99 327.67 795.48 325.84 795.99 324.01 C 803.92 326.73 809.07 334.43 810.26 342.51 C 812.71 342.51 815.18 342.49 817.65 342.40 C 820.28 336.86 823.12 330.82 828.52 327.47 C 830.65 326.13 833.21 327.60 834.48 329.44 C 837.20 333.29 837.97 338.05 839.13 342.52 C 842.50 342.49 845.87 342.50 849.25 342.49 C 849.24 333.42 849.25 324.35 849.24 315.28 M 824.08 340.00 C 827.08 341.74 830.13 343.38 833.27 344.86 C 832.89 340.84 831.81 336.89 829.57 333.49 C 827.62 335.56 825.81 337.75 824.08 340.00 Z" />
<path fill="#015197" opacity="1.00" d=" M 861.76 315.28 C 863.91 314.66 866.07 314.04 868.24 313.43 C 868.26 325.03 868.25 336.64 868.25 348.25 C 866.07 348.25 863.91 348.25 861.75 348.25 C 861.75 337.26 861.74 326.27 861.76 315.28 Z" />
<path fill="#015197" opacity="1.00" d=" M 34.39 315.53 C 36.85 314.12 39.76 316.36 39.99 318.94 C 40.67 322.10 36.08 324.39 33.89 322.09 C 31.53 320.50 31.79 316.73 34.39 315.53 Z" />
<path fill="#015197" opacity="1.00" d=" M 45.24 315.25 C 48.76 313.88 51.93 319.64 48.96 321.94 C 47.26 323.64 43.98 323.23 43.04 320.94 C 41.58 318.86 42.89 315.91 45.24 315.25 Z" />
<path fill="#015197" opacity="1.00" d=" M 86.43 315.68 C 89.16 313.91 93.05 316.93 92.19 320.02 C 91.79 322.81 87.96 324.03 86.01 321.98 C 83.81 320.41 84.01 316.90 86.43 315.68 Z" />
<path fill="#015197" opacity="1.00" d=" M 98.18 315.13 C 101.66 314.76 104.11 319.92 101.09 322.10 C 98.79 324.42 94.70 322.09 94.68 319.07 C 94.48 317.03 96.27 315.38 98.18 315.13 Z" />
<path fill="#015197" opacity="1.00" d=" M 201.41 315.46 C 204.97 313.56 208.74 319.19 205.77 321.86 C 203.88 323.89 200.53 323.06 199.50 320.58 C 198.22 318.68 199.60 316.36 201.41 315.46 Z" />
<path fill="#015197" opacity="1.00" d=" M 211.44 315.51 C 214.78 313.61 218.71 318.51 216.30 321.39 C 215.03 323.44 211.80 323.58 210.41 321.59 C 208.46 319.90 209.01 316.45 211.44 315.51 Z" />
<path fill="#015197" opacity="1.00" d=" M 414.32 315.33 C 417.70 314.21 420.83 318.87 418.39 321.54 C 416.34 324.38 411.11 322.52 411.48 318.98 C 411.40 317.21 412.76 315.88 414.32 315.33 Z" />
<path fill="#015197" opacity="1.00" d=" M 462.44 315.49 C 465.69 313.87 469.64 318.08 467.36 321.09 C 466.03 323.91 461.44 323.42 460.51 320.57 C 459.67 318.74 460.55 316.26 462.44 315.49 Z" />
<path fill="#015197" opacity="1.00" d=" M 473.28 315.23 C 476.85 314.06 479.96 319.85 476.78 321.98 C 475.02 323.69 471.93 323.15 470.93 320.89 C 469.52 318.71 470.86 315.85 473.28 315.23 Z" />
<path fill="#015197" opacity="1.00" d=" M 720.25 327.73 C 722.33 327.01 724.41 326.28 726.50 325.54 C 726.51 331.19 726.50 336.85 726.51 342.50 C 728.74 342.50 730.99 342.50 733.24 342.50 C 733.24 337.57 733.24 332.65 733.25 327.72 C 735.24 327.02 737.23 326.31 739.24 325.61 C 739.30 331.24 739.08 336.89 739.55 342.51 C 741.69 342.50 743.83 342.50 745.99 342.50 C 746.00 337.60 746.00 332.70 746.00 327.80 C 748.08 327.05 750.17 326.30 752.26 325.54 C 752.24 333.11 752.26 340.68 752.25 348.25 C 743.60 348.25 734.95 348.26 726.31 348.24 C 724.92 351.84 723.61 356.12 719.83 357.90 C 714.20 360.56 707.01 360.83 701.72 357.24 C 698.08 354.85 696.30 350.13 697.23 345.91 C 697.77 342.36 699.62 339.23 701.39 336.17 C 702.78 336.02 704.18 335.87 705.60 335.72 C 703.88 340.11 701.24 345.05 703.20 349.80 C 706.63 356.63 719.36 354.87 720.12 347.00 C 720.45 340.58 720.13 334.15 720.25 327.73 Z" />
<path fill="#015197" opacity="1.00" d=" M 761.62 327.72 C 763.63 327.07 765.65 326.41 767.67 325.77 C 768.82 333.78 769.78 341.92 769.05 350.01 C 768.27 355.82 762.52 359.72 756.94 359.96 C 755.08 359.97 754.33 358.09 753.34 356.90 C 756.14 355.67 759.47 354.96 761.48 352.47 C 763.04 350.67 763.05 348.17 763.20 345.93 C 763.30 339.82 762.63 333.73 761.62 327.72 Z" />
<path fill="#015197" opacity="1.00" d=" M 61.29 353.20 C 65.22 350.03 69.82 357.16 65.75 359.71 C 61.72 362.81 56.99 355.77 61.29 353.20 Z" />
<path fill="#015197" opacity="1.00" d=" M 71.39 353.22 C 75.23 349.97 80.32 357.50 75.69 359.74 C 71.83 362.62 67.19 355.71 71.39 353.22 Z" />
<path fill="#015197" opacity="1.00" d=" M 114.38 353.31 C 118.37 349.86 123.16 357.45 118.70 359.81 C 114.68 362.62 110.48 355.79 114.38 353.31 Z" />
<path fill="#015197" opacity="1.00" d=" M 124.39 353.28 C 128.44 349.84 133.44 357.48 128.82 359.87 C 124.90 362.36 120.63 355.96 124.39 353.28 Z" />
<path fill="#015197" opacity="1.00" d=" M 142.32 353.34 C 146.33 349.66 151.29 357.48 146.66 359.71 C 142.74 362.53 138.64 355.89 142.32 353.34 Z" />
<path fill="#015197" opacity="1.00" d=" M 280.43 353.25 C 282.93 350.98 287.02 353.92 286.52 357.00 C 286.46 359.47 283.23 361.32 281.07 359.96 C 278.62 358.75 277.81 354.76 280.43 353.25 Z" />
<path fill="#015197" opacity="1.00" d=" M 290.40 353.41 C 294.34 349.61 299.55 357.56 294.77 359.88 C 290.97 362.42 286.66 355.98 290.40 353.41 Z" />
<path fill="#015197" opacity="1.00" d=" M 314.28 353.21 C 318.35 349.93 322.83 357.14 318.65 359.70 C 314.58 362.59 310.28 355.75 314.28 353.21 Z" />
</g>
<g id="#d1232aff">
<path fill="#d1232a" opacity="1.00" d=" M 171.96 95.75 C 192.24 95.75 212.52 95.74 232.80 95.75 C 232.79 128.50 232.78 161.24 232.79 193.98 C 232.72 197.52 233.64 202.04 237.41 203.38 C 241.97 204.10 246.62 203.61 251.22 203.75 C 251.21 207.66 251.21 211.58 251.23 215.49 C 225.02 215.51 198.81 215.51 172.60 215.50 C 172.60 211.40 172.59 207.31 172.60 203.21 C 177.29 203.17 182.12 203.94 186.69 202.55 C 190.28 201.48 191.10 197.20 191.01 193.94 C 190.98 168.28 191.04 142.62 191.00 116.96 C 191.35 113.02 188.40 109.41 184.63 108.56 C 180.45 107.74 176.18 108.23 171.96 108.29 C 171.95 104.11 171.95 99.93 171.96 95.75 Z" />
<path fill="#d1232a" opacity="1.00" d=" M 168.00 249.00 C 170.25 249.00 172.50 249.00 174.76 249.00 C 174.75 255.25 174.76 261.50 174.75 267.75 C 172.50 267.75 170.25 267.75 168.01 267.76 C 167.99 261.51 168.00 255.25 168.00 249.00 Z" />
<path fill="#d1232a" opacity="1.00" d=" M 279.71 251.07 C 280.60 248.75 284.16 247.83 284.53 250.93 C 283.75 253.88 281.20 252.51 279.71 251.07 Z" />
<path fill="#d1232a" opacity="1.00" d=" M 336.00 249.00 C 337.75 249.00 339.50 249.00 341.25 249.00 C 341.25 255.25 341.25 261.50 341.25 267.75 C 339.40 267.75 337.55 267.75 335.70 267.75 C 335.94 261.50 336.08 255.25 336.00 249.00 Z" />
<path fill="#d1232a" opacity="1.00" d=" M 193.14 255.95 C 195.38 253.88 197.60 251.79 199.77 249.66 C 199.76 250.68 199.76 252.72 199.75 253.74 C 201.25 253.74 202.75 253.75 204.25 253.76 C 204.25 254.57 204.25 256.18 204.25 256.99 C 202.73 256.99 201.22 257.00 199.70 257.01 C 199.80 259.18 199.93 261.35 200.04 263.52 C 201.79 263.34 203.54 263.16 205.30 263.00 C 205.27 267.71 198.96 268.47 196.12 265.76 C 194.52 262.67 196.19 258.40 193.14 255.95 Z" />
<path fill="#d1232a" opacity="1.00" d=" M 266.49 255.90 C 268.64 253.72 270.82 251.55 272.99 249.39 C 273.00 250.84 273.00 252.30 273.01 253.76 C 274.50 253.75 276.00 253.75 277.50 253.75 C 277.50 254.56 277.50 256.18 277.51 257.00 C 276.00 257.00 274.50 257.00 273.00 257.00 C 273.00 259.17 273.00 261.34 273.00 263.52 C 274.85 263.33 276.71 263.15 278.57 262.98 C 278.20 267.52 272.08 268.61 269.28 265.63 C 267.75 262.55 268.98 258.60 266.49 255.90 Z" />
<path fill="#d1232a" opacity="1.00" d=" M 177.49 253.65 C 181.73 255.64 186.21 252.70 190.37 254.62 C 191.73 258.62 191.58 262.84 191.50 267.00 C 189.92 267.00 188.34 267.00 186.76 267.00 C 186.82 263.60 186.79 260.19 186.13 256.85 C 184.85 257.53 182.81 257.54 182.39 259.23 C 181.77 261.77 182.03 264.41 181.98 267.00 C 180.48 267.00 178.99 267.00 177.50 267.00 C 177.49 262.55 177.50 258.10 177.49 253.65 Z" />
<path fill="#d1232a" opacity="1.00" d=" M 206.02 260.98 C 205.22 255.48 212.16 251.87 216.69 254.30 C 219.56 255.42 219.72 258.97 220.59 261.47 C 217.03 261.47 213.47 261.60 209.92 261.89 C 212.93 264.60 217.03 264.14 220.72 263.50 C 217.68 269.76 206.51 268.04 206.02 260.98 M 213.30 256.17 C 212.22 257.06 211.15 257.95 210.08 258.85 C 212.28 258.96 214.49 258.99 216.70 259.00 C 215.57 258.04 214.44 257.10 213.30 256.17 Z" />
<path fill="#d1232a" opacity="1.00" d=" M 222.50 253.43 C 224.15 253.92 225.82 254.43 227.48 254.93 C 229.66 254.31 231.89 253.90 234.14 253.59 C 233.66 255.11 233.17 256.62 232.67 258.14 C 227.34 257.16 226.47 263.08 226.69 267.00 C 225.29 267.00 223.89 267.00 222.50 267.00 C 222.49 262.47 222.50 257.95 222.50 253.43 Z" />
<path fill="#d1232a" opacity="1.00" d=" M 235.48 253.54 C 237.95 254.18 240.51 254.91 243.04 254.08 C 245.12 253.39 248.03 253.67 248.85 256.05 C 249.89 259.61 249.43 263.35 249.50 267.00 C 247.92 267.00 246.35 266.99 244.77 267.00 C 244.90 263.54 245.02 260.01 243.87 256.69 C 239.03 257.76 240.01 263.28 239.98 267.00 C 238.48 267.00 236.99 267.00 235.50 267.00 C 235.49 262.51 235.51 258.03 235.48 253.54 Z" />
<path fill="#d1232a" opacity="1.00" d=" M 252.46 254.66 C 255.99 254.06 260.50 252.44 263.39 255.42 C 264.44 259.01 263.36 263.37 266.60 266.07 C 262.60 267.31 258.36 267.00 254.25 266.88 C 252.59 266.79 252.06 265.02 251.21 263.93 C 252.23 262.48 253.35 261.10 254.50 259.75 C 255.63 260.00 256.76 260.28 257.88 260.60 C 255.81 262.11 255.45 264.56 258.05 265.54 C 258.91 264.45 259.61 263.24 259.96 261.89 C 257.82 260.58 258.07 258.60 260.11 257.45 C 257.32 256.08 254.53 257.41 251.90 258.40 C 252.09 257.15 252.27 255.90 252.46 254.66 Z" />
<path fill="#d1232a" opacity="1.00" d=" M 280.00 253.75 C 281.58 253.75 283.16 253.75 284.75 253.75 C 284.76 258.17 284.76 262.58 284.75 267.00 C 283.16 267.00 281.58 267.00 280.00 267.00 C 280.00 262.58 280.00 258.16 280.00 253.75 Z" />
<path fill="#d1232a" opacity="1.00" d=" M 291.18 254.25 C 295.80 251.88 303.19 255.12 302.47 260.90 C 302.19 267.02 293.75 269.20 289.57 265.48 C 285.90 262.57 286.83 256.01 291.18 254.25 M 294.07 257.16 C 291.21 258.37 291.68 263.36 294.78 263.89 C 298.90 263.66 298.11 256.00 294.07 257.16 Z" />
<path fill="#d1232a" opacity="1.00" d=" M 304.74 253.58 C 307.11 254.03 309.54 254.70 311.97 254.09 C 314.12 253.64 317.19 253.29 318.14 255.87 C 319.26 259.46 318.81 263.30 318.92 267.01 C 317.36 267.00 315.80 266.99 314.25 266.99 C 314.34 263.67 314.30 260.33 313.54 257.09 C 312.23 257.48 310.48 257.46 309.91 258.98 C 309.01 261.55 309.56 264.34 309.52 267.00 C 307.92 267.00 306.33 266.99 304.75 267.00 C 304.74 262.52 304.75 258.05 304.74 253.58 Z" />
<path fill="#d1232a" opacity="1.00" d=" M 321.82 254.68 C 325.23 254.10 329.69 252.47 332.50 255.26 C 333.48 258.99 334.51 263.08 334.07 266.87 C 330.66 267.05 327.25 266.93 323.84 266.93 C 322.01 267.04 320.35 264.76 321.18 263.07 C 322.46 260.00 326.26 259.81 328.86 258.40 C 329.52 256.65 327.09 256.76 325.99 256.85 C 324.36 257.19 322.81 257.84 321.25 258.42 C 321.40 257.48 321.68 255.61 321.82 254.68 M 326.26 261.27 C 325.26 262.35 324.90 265.20 327.12 264.99 C 330.41 265.05 329.42 258.55 326.26 261.27 Z" />
<path fill="#d1232a" opacity="1.00" d=" M 588.27 315.22 C 590.42 314.65 592.58 314.07 594.74 313.49 C 594.77 325.07 594.75 336.66 594.76 348.25 C 579.41 348.27 564.07 348.24 548.73 348.26 C 548.12 347.48 547.52 346.71 546.92 345.93 C 543.18 348.34 538.21 349.09 534.26 346.74 C 529.67 343.46 529.65 335.63 534.19 332.27 C 539.42 328.08 546.33 327.29 552.75 326.44 C 552.76 331.79 552.75 337.14 552.76 342.50 C 557.92 342.50 563.08 342.50 568.24 342.50 C 568.24 337.53 568.24 332.56 568.25 327.60 C 570.42 326.98 572.58 326.36 574.76 325.74 C 574.75 331.33 574.75 336.91 574.76 342.50 C 579.25 342.50 583.74 342.50 588.24 342.50 C 588.26 333.40 588.21 324.31 588.27 315.22 M 538.55 335.57 C 536.48 337.12 536.18 341.27 538.93 342.28 C 541.42 342.88 543.99 342.48 546.52 342.49 C 546.48 339.06 546.49 335.63 546.50 332.20 C 543.80 333.16 540.87 333.80 538.55 335.57 Z" />
<path fill="#d1232a" opacity="1.00" d=" M 659.00 315.26 C 661.17 314.67 663.33 314.07 665.51 313.47 C 665.49 325.07 665.52 336.66 665.50 348.25 C 652.21 348.12 638.91 348.64 625.64 347.70 C 625.77 345.85 625.93 344.00 626.10 342.16 C 631.52 342.64 636.97 342.51 642.41 342.47 C 641.46 336.91 637.76 332.30 632.93 329.53 C 633.43 327.68 633.95 325.83 634.48 323.99 C 642.33 326.84 647.46 334.44 648.71 342.51 C 652.14 342.50 655.57 342.50 659.00 342.50 C 659.00 333.42 658.99 324.34 659.00 315.26 Z" />
<path fill="#d1232a" opacity="1.00" d=" M 671.50 315.31 C 673.66 314.69 675.82 314.08 677.99 313.47 C 678.01 325.07 678.00 336.66 678.00 348.25 C 675.83 348.25 673.66 348.25 671.50 348.25 C 671.49 337.27 671.49 326.29 671.50 315.31 Z" />
<path fill="#d1232a" opacity="1.00" d=" M 537.42 315.45 C 541.27 313.41 545.06 320.15 541.16 322.28 C 538.40 324.55 534.45 321.26 534.99 318.11 C 535.55 317.04 536.33 316.03 537.42 315.45 Z" />
<path fill="#d1232a" opacity="1.00" d=" M 547.44 315.51 C 551.85 313.02 555.43 321.23 550.51 322.67 C 546.18 324.84 542.88 317.19 547.44 315.51 Z" />
<path fill="#d1232a" opacity="1.00" d=" M 601.76 333.86 C 606.25 328.78 613.31 327.58 619.65 326.50 C 620.66 334.30 621.82 342.23 620.87 350.09 C 620.07 356.05 613.87 360.18 608.10 359.81 C 606.68 359.49 606.13 357.92 605.22 356.98 C 609.78 355.73 614.04 352.93 615.68 348.29 C 611.49 348.15 607.11 348.63 603.12 347.13 C 598.36 344.64 598.55 337.55 601.76 333.86 M 606.63 336.55 C 605.24 337.99 605.70 340.06 605.70 341.85 C 608.77 342.59 611.93 342.57 615.06 342.60 C 614.90 339.17 614.64 335.75 614.40 332.33 C 611.65 333.37 608.56 334.18 606.63 336.55 Z" />
<path fill="#d1232a" opacity="1.00" d=" M 564.26 353.10 C 566.44 351.38 569.79 353.36 569.97 355.95 C 570.80 358.64 567.52 361.17 565.08 360.15 C 562.13 359.30 561.36 354.52 564.26 353.10 Z" />
<path fill="#d1232a" opacity="1.00" d=" M 574.33 353.17 C 576.55 351.64 580.07 353.26 580.23 355.98 C 580.87 358.76 577.62 361.08 575.09 360.10 C 572.09 359.31 571.52 354.58 574.33 353.17 Z" />
</g>
</svg>
